<mxfile host="app.diagrams.net" modified="2023-11-26T02:58:32.956Z" agent="Mozilla/5.0 (Windows NT 10.0; Win64; x64) AppleWebKit/537.36 (KHTML, like Gecko) Chrome/119.0.0.0 Safari/537.36" etag="w-4AMKswZKqwH2q32JXX" version="22.1.4" type="device">
  <diagram id="C5RBs43oDa-KdzZeNtuy" name="Page-1">
    <mxGraphModel dx="1075" dy="480" grid="1" gridSize="10" guides="1" tooltips="1" connect="1" arrows="1" fold="1" page="1" pageScale="1" pageWidth="827" pageHeight="1169" math="0" shadow="0">
      <root>
        <mxCell id="WIyWlLk6GJQsqaUBKTNV-0" />
        <mxCell id="WIyWlLk6GJQsqaUBKTNV-1" parent="WIyWlLk6GJQsqaUBKTNV-0" />
        <mxCell id="Kyp6OlGJLda43gDxrAZN-42" value="" style="group" parent="WIyWlLk6GJQsqaUBKTNV-1" vertex="1" connectable="0">
          <mxGeometry x="380" y="395" width="220" height="190" as="geometry" />
        </mxCell>
        <mxCell id="Kyp6OlGJLda43gDxrAZN-43" value="" style="shape=folder;fontStyle=1;spacingTop=10;tabWidth=40;tabHeight=14;tabPosition=left;html=1;whiteSpace=wrap;" parent="Kyp6OlGJLda43gDxrAZN-42" vertex="1">
          <mxGeometry x="10" y="10" width="210" height="180" as="geometry" />
        </mxCell>
        <mxCell id="Kyp6OlGJLda43gDxrAZN-44" value="data" style="text;strokeColor=none;align=center;fillColor=none;html=1;verticalAlign=middle;whiteSpace=wrap;rounded=0;" parent="Kyp6OlGJLda43gDxrAZN-42" vertex="1">
          <mxGeometry width="60" height="30" as="geometry" />
        </mxCell>
        <mxCell id="Kyp6OlGJLda43gDxrAZN-27" value="Note" style="swimlane;fontStyle=1;align=center;verticalAlign=top;childLayout=stackLayout;horizontal=1;startSize=26;horizontalStack=0;resizeParent=1;resizeParentMax=0;resizeLast=0;collapsible=1;marginBottom=0;whiteSpace=wrap;html=1;" parent="Kyp6OlGJLda43gDxrAZN-42" vertex="1">
          <mxGeometry x="35" y="57" width="160" height="86" as="geometry" />
        </mxCell>
        <mxCell id="Kyp6OlGJLda43gDxrAZN-28" value="+ field: type" style="text;strokeColor=none;fillColor=none;align=left;verticalAlign=top;spacingLeft=4;spacingRight=4;overflow=hidden;rotatable=0;points=[[0,0.5],[1,0.5]];portConstraint=eastwest;whiteSpace=wrap;html=1;" parent="Kyp6OlGJLda43gDxrAZN-27" vertex="1">
          <mxGeometry y="26" width="160" height="26" as="geometry" />
        </mxCell>
        <mxCell id="Kyp6OlGJLda43gDxrAZN-29" value="" style="line;strokeWidth=1;fillColor=none;align=left;verticalAlign=middle;spacingTop=-1;spacingLeft=3;spacingRight=3;rotatable=0;labelPosition=right;points=[];portConstraint=eastwest;strokeColor=inherit;" parent="Kyp6OlGJLda43gDxrAZN-27" vertex="1">
          <mxGeometry y="52" width="160" height="8" as="geometry" />
        </mxCell>
        <mxCell id="Kyp6OlGJLda43gDxrAZN-30" value="+ method(type): type" style="text;strokeColor=none;fillColor=none;align=left;verticalAlign=top;spacingLeft=4;spacingRight=4;overflow=hidden;rotatable=0;points=[[0,0.5],[1,0.5]];portConstraint=eastwest;whiteSpace=wrap;html=1;" parent="Kyp6OlGJLda43gDxrAZN-27" vertex="1">
          <mxGeometry y="60" width="160" height="26" as="geometry" />
        </mxCell>
        <mxCell id="Kyp6OlGJLda43gDxrAZN-34" value="" style="group" parent="WIyWlLk6GJQsqaUBKTNV-1" vertex="1" connectable="0">
          <mxGeometry x="380" y="170" width="220" height="190" as="geometry" />
        </mxCell>
        <mxCell id="Kyp6OlGJLda43gDxrAZN-35" value="" style="shape=folder;fontStyle=1;spacingTop=10;tabWidth=40;tabHeight=14;tabPosition=left;html=1;whiteSpace=wrap;" parent="Kyp6OlGJLda43gDxrAZN-34" vertex="1">
          <mxGeometry x="10" y="10" width="210" height="180" as="geometry" />
        </mxCell>
        <mxCell id="Kyp6OlGJLda43gDxrAZN-36" value="model" style="text;strokeColor=none;align=center;fillColor=none;html=1;verticalAlign=middle;whiteSpace=wrap;rounded=0;" parent="Kyp6OlGJLda43gDxrAZN-34" vertex="1">
          <mxGeometry width="60" height="30" as="geometry" />
        </mxCell>
        <mxCell id="Kyp6OlGJLda43gDxrAZN-16" value="WorkingNote" style="swimlane;fontStyle=0;childLayout=stackLayout;horizontal=1;startSize=26;fillColor=none;horizontalStack=0;resizeParent=1;resizeParentMax=0;resizeLast=0;collapsible=1;marginBottom=0;whiteSpace=wrap;html=1;" parent="Kyp6OlGJLda43gDxrAZN-34" vertex="1">
          <mxGeometry x="20" y="69" width="190" height="52" as="geometry">
            <mxRectangle x="130" y="220" width="120" height="30" as="alternateBounds" />
          </mxGeometry>
        </mxCell>
        <mxCell id="Kyp6OlGJLda43gDxrAZN-17" value="-&amp;nbsp; method:saveNote( )" style="text;strokeColor=none;fillColor=none;align=left;verticalAlign=top;spacingLeft=4;spacingRight=4;overflow=hidden;rotatable=0;points=[[0,0.5],[1,0.5]];portConstraint=eastwest;whiteSpace=wrap;html=1;" parent="Kyp6OlGJLda43gDxrAZN-16" vertex="1">
          <mxGeometry y="26" width="190" height="26" as="geometry" />
        </mxCell>
        <mxCell id="Kyp6OlGJLda43gDxrAZN-33" value="" style="group" parent="WIyWlLk6GJQsqaUBKTNV-1" vertex="1" connectable="0">
          <mxGeometry x="120" y="170" width="220" height="190" as="geometry" />
        </mxCell>
        <mxCell id="Kyp6OlGJLda43gDxrAZN-31" value="" style="shape=folder;fontStyle=1;spacingTop=10;tabWidth=40;tabHeight=14;tabPosition=left;html=1;whiteSpace=wrap;" parent="Kyp6OlGJLda43gDxrAZN-33" vertex="1">
          <mxGeometry x="10" y="10" width="210" height="180" as="geometry" />
        </mxCell>
        <mxCell id="Kyp6OlGJLda43gDxrAZN-32" value="ui" style="text;strokeColor=none;align=center;fillColor=none;html=1;verticalAlign=middle;whiteSpace=wrap;rounded=0;" parent="Kyp6OlGJLda43gDxrAZN-33" vertex="1">
          <mxGeometry width="60" height="30" as="geometry" />
        </mxCell>
        <mxCell id="Kyp6OlGJLda43gDxrAZN-4" value="NoteEditActivity" style="swimlane;fontStyle=0;childLayout=stackLayout;horizontal=1;startSize=26;fillColor=none;horizontalStack=0;resizeParent=1;resizeParentMax=0;resizeLast=0;collapsible=1;marginBottom=0;whiteSpace=wrap;html=1;" parent="WIyWlLk6GJQsqaUBKTNV-1" vertex="1">
          <mxGeometry x="140" y="220" width="190" height="130" as="geometry">
            <mxRectangle x="130" y="220" width="120" height="30" as="alternateBounds" />
          </mxGeometry>
        </mxCell>
        <mxCell id="Kyp6OlGJLda43gDxrAZN-5" value="-&amp;nbsp; object:bitmap&amp;nbsp;" style="text;strokeColor=none;fillColor=none;align=left;verticalAlign=top;spacingLeft=4;spacingRight=4;overflow=hidden;rotatable=0;points=[[0,0.5],[1,0.5]];portConstraint=eastwest;whiteSpace=wrap;html=1;" parent="Kyp6OlGJLda43gDxrAZN-4" vertex="1">
          <mxGeometry y="26" width="190" height="26" as="geometry" />
        </mxCell>
        <mxCell id="Kyp6OlGJLda43gDxrAZN-6" value="-&amp;nbsp; object:tagPath" style="text;strokeColor=none;fillColor=none;align=left;verticalAlign=top;spacingLeft=4;spacingRight=4;overflow=hidden;rotatable=0;points=[[0,0.5],[1,0.5]];portConstraint=eastwest;whiteSpace=wrap;html=1;" parent="Kyp6OlGJLda43gDxrAZN-4" vertex="1">
          <mxGeometry y="52" width="190" height="26" as="geometry" />
        </mxCell>
        <mxCell id="Kyp6OlGJLda43gDxrAZN-7" value="# method:setBackground( )&lt;br&gt;# method:handleImage()&lt;br&gt;# method:displayImage()" style="text;strokeColor=none;fillColor=none;align=left;verticalAlign=top;spacingLeft=4;spacingRight=4;overflow=hidden;rotatable=0;points=[[0,0.5],[1,0.5]];portConstraint=eastwest;whiteSpace=wrap;html=1;" parent="Kyp6OlGJLda43gDxrAZN-4" vertex="1">
          <mxGeometry y="78" width="190" height="52" as="geometry" />
        </mxCell>
        <mxCell id="Kyp6OlGJLda43gDxrAZN-22" value="Use" style="endArrow=open;endSize=12;dashed=1;html=1;rounded=0;exitX=0.998;exitY=1.049;exitDx=0;exitDy=0;exitPerimeter=0;entryX=0.004;entryY=0.256;entryDx=0;entryDy=0;entryPerimeter=0;" parent="WIyWlLk6GJQsqaUBKTNV-1" source="Kyp6OlGJLda43gDxrAZN-5" target="Kyp6OlGJLda43gDxrAZN-17" edge="1">
          <mxGeometry x="-0.1059" y="14" width="160" relative="1" as="geometry">
            <mxPoint x="340" y="250" as="sourcePoint" />
            <mxPoint x="400" y="270" as="targetPoint" />
            <mxPoint as="offset" />
          </mxGeometry>
        </mxCell>
        <mxCell id="Kyp6OlGJLda43gDxrAZN-23" value="1" style="edgeLabel;html=1;align=center;verticalAlign=middle;resizable=0;points=[];" parent="Kyp6OlGJLda43gDxrAZN-22" vertex="1" connectable="0">
          <mxGeometry x="-0.7985" relative="1" as="geometry">
            <mxPoint y="-7" as="offset" />
          </mxGeometry>
        </mxCell>
        <mxCell id="Kyp6OlGJLda43gDxrAZN-24" value="1" style="edgeLabel;html=1;align=center;verticalAlign=middle;resizable=0;points=[];" parent="Kyp6OlGJLda43gDxrAZN-22" vertex="1" connectable="0">
          <mxGeometry x="0.7905" y="2" relative="1" as="geometry">
            <mxPoint x="-1" y="19" as="offset" />
          </mxGeometry>
        </mxCell>
        <mxCell id="Kyp6OlGJLda43gDxrAZN-47" value="Use" style="endArrow=open;endSize=12;dashed=1;html=1;rounded=0;exitX=0.469;exitY=1.07;exitDx=0;exitDy=0;exitPerimeter=0;" parent="WIyWlLk6GJQsqaUBKTNV-1" source="Kyp6OlGJLda43gDxrAZN-17" target="Kyp6OlGJLda43gDxrAZN-27" edge="1">
          <mxGeometry width="160" relative="1" as="geometry">
            <mxPoint x="480" y="310" as="sourcePoint" />
            <mxPoint x="640" y="310" as="targetPoint" />
          </mxGeometry>
        </mxCell>
        <mxCell id="Kyp6OlGJLda43gDxrAZN-48" value="1" style="edgeLabel;html=1;align=center;verticalAlign=middle;resizable=0;points=[];" parent="Kyp6OlGJLda43gDxrAZN-47" vertex="1" connectable="0">
          <mxGeometry x="-0.928" y="1" relative="1" as="geometry">
            <mxPoint x="5" y="-1" as="offset" />
          </mxGeometry>
        </mxCell>
        <mxCell id="Kyp6OlGJLda43gDxrAZN-49" value="1" style="edgeLabel;html=1;align=center;verticalAlign=middle;resizable=0;points=[];" parent="Kyp6OlGJLda43gDxrAZN-47" vertex="1" connectable="0">
          <mxGeometry x="0.9017" y="6" relative="1" as="geometry">
            <mxPoint x="10" as="offset" />
          </mxGeometry>
        </mxCell>
      </root>
    </mxGraphModel>
  </diagram>
</mxfile>
